<svg version="1.1" id="Layer_1" xmlns="http://www.w3.org/2000/svg" xmlns:xlink="http://www.w3.org/1999/xlink" x="0px" y="0px"
	 viewBox="78.949 335.265 453.714 120.279"
	 enable-background="new 78.949 335.265 453.714 120.279" xml:space="preserve">
	 <style>
		@media all and (max-width: 199px) {
			#strapline{
				opacity: 0;
				display:none;
			}
		}
	</style>
<g id="logo">
	<path fill="#252C30" d="M532.663,403.703v9.223c0,1.12-0.902,2.131-2.131,2.131h-41.14c-1.233,0-2.135-1.011-2.135-2.131v-74.408
		c0-1.125,0.902-2.133,2.135-2.133h10.343c1.115,0,2.135,1.008,2.135,2.133v63.056h28.662
		C531.759,401.573,532.663,402.588,532.663,403.703z M476.727,412.131c0.678,1.465-0.221,2.926-1.903,2.926h-9.775
		c-1.683,0-2.479-0.666-3.269-2.239l-5.51-12.149h-33.599l-5.506,12.149c-0.452,1.12-1.46,2.239-3.264,2.239h-9.785
		c-1.678,0-2.578-1.461-1.898-2.926l34.946-75.636c0.349-0.673,0.906-1.23,1.919-1.23h1.116c1.12,0,1.572,0.558,1.917,1.23
		L476.727,412.131z M450.76,388.198l-11.231-24.732h-0.335l-11.013,24.732H450.76z M406.32,347.74v-9.222
		c0-1.125-0.894-2.133-2.135-2.133h-49.12c-1.233,0-2.136,1.008-2.136,2.133v9.222c0,1.116,0.902,2.13,2.136,2.13h17.202v63.056
		c0,1.12,1.008,2.131,2.125,2.131h10.46c1.12,0,2.131-1.011,2.131-2.131V349.87h17.204C405.427,349.87,406.32,348.857,406.32,347.74
		z M288.047,336.385h-11.575c-0.897,0-1.46,0.56-1.804,1.008l-17.978,25.853l-17.983-25.853c-0.34-0.448-0.9-1.008-1.802-1.008
		h-11.465c-1.789,0-2.691,1.789-1.789,3.251l25.619,37.547v35.743c0,1.12,0.902,2.131,2.148,2.131h10.331
		c1.129,0,2.145-1.011,2.145-2.131v-35.853l25.96-37.437C290.754,338.173,289.852,336.385,288.047,336.385z M322.587,368.516
		c-9.103-3.698-13.256-7.293-13.256-12.581c0-3.593,3.485-7.868,9.893-7.868c6.171,0,14.711,5.629,15.618,6.192
		c1.353,0.902,3.032,0,3.931-1.353l4.276-6.41c0.783-1.123,0.438-3.037-0.677-3.703c-2.243-1.696-11.018-7.528-22.48-7.528
		c-17.863,0-25.288,11.571-25.288,21.578c0,13.26,10.567,19.998,21.137,24.277c9.436,3.816,14.264,7.749,14.264,13.483
		c0,4.842-4.376,8.65-10.228,8.65c-7.308,0-16.401-6.623-16.964-6.968c-1.008-0.776-2.925-0.776-3.822,0.794l-4.045,6.969
		c-1.01,1.799-0.452,2.366,0.562,3.377c2.254,2.13,10.563,8.758,24.723,8.758c15.85,0,25.854-10.673,25.854-22.246
		C346.086,379.426,333.489,372.91,322.587,368.516z M202.987,383.255l15.4,28.536c0.794,1.461,0,3.266-1.912,3.266h-11.791
		c-1.008,0-1.584-0.559-1.802-1.011l-14.95-29.783h-12.473v28.663c0,1.12-1.015,2.131-2.133,2.131h-10.345
		c-1.242,0-2.135-1.011-2.135-2.131v-74.408c0-1.125,0.893-2.133,2.135-2.133h32.152c13.485,0,24.496,10.792,24.496,24.154
		C219.631,370.883,212.773,379.315,202.987,383.255z M205.012,360.772c0-5.955-5.163-10.902-11.123-10.902h-18.32v22.37h18.32
		C199.849,372.24,205.012,367.075,205.012,360.772z M139.973,395.058c-0.67-0.682-1.898-0.794-2.803,0
		c-4.727,3.812-10.45,6.409-17.202,6.409c-14.392,0-25.166-11.915-25.166-25.974c0-14.16,10.668-26.179,25.061-26.179
		c6.307,0,12.583,2.47,17.31,6.624c0.907,0.907,2.027,0.907,2.803,0l6.857-7.078c0.904-0.897,0.904-2.25-0.108-3.143
		c-7.636-6.855-15.848-10.45-27.205-10.45c-22.478,0-40.57,18.091-40.57,40.566c0,22.478,18.093,40.351,40.57,40.351
		c10.003,0,19.677-3.49,27.311-10.905c0.792-0.778,1.01-2.243,0.112-3.032L139.973,395.058z"/>
	<path fill="#14645F" d="M487.258,412.926v-4.128l14.612-14.615v7.39h28.662c1.229,0,2.131,1.015,2.131,2.13v9.223
		c0,1.12-0.902,2.131-2.131,2.131h-41.14C488.157,415.057,487.258,414.046,487.258,412.926z M374.393,415.057h10.46
		c1.12,0,2.131-1.011,2.131-2.131V385.92l-14.716,14.716v12.289C372.268,414.046,373.275,415.057,374.393,415.057z M501.87,338.518
		c0-1.125-1.02-2.133-2.136-2.133h-10.342c-1.233,0-2.135,1.008-2.135,2.133v15.03l14.612-14.612V338.518L501.87,338.518z
		 M162.983,336.385c-1.242,0-2.135,1.008-2.135,2.133v24.61l26.743-26.743H162.983z M94.799,375.491
		c0-14.16,10.668-26.179,25.061-26.179c6.307,0,12.583,2.47,17.31,6.624c0.907,0.907,2.027,0.907,2.803,0l6.857-7.078
		c0.905-0.897,0.905-2.25-0.108-3.143c-6.922-6.217-14.346-9.718-24.131-10.324l-43.488,43.489
		c1.294,17.499,13.588,31.675,30.054,35.943l13.503-13.504c-0.879,0.092-1.774,0.148-2.693,0.148
		C105.575,401.467,94.799,389.55,94.799,375.491z M442.116,336.495l19.525,42.669l-21.507,21.507h-17.464l-5.506,12.149
		c-0.452,1.12-1.46,2.238-3.264,2.238h-9.785c-1.678,0-2.578-1.461-1.898-2.926l34.946-75.636c0.349-0.672,0.906-1.23,1.919-1.23
		h1.116C441.319,335.265,441.771,335.822,442.116,336.495z M450.76,388.198l-11.231-24.732h-0.335l-11.013,24.732H450.76z"/>
</g>
<g id="strapline">
	<g>
		<path fill="#252C30" d="M207.383,452.176c0.273-0.395,0.519-0.852,0.792-1.248c0.273-0.391,0.696-0.51,1.031-0.241
			c0.184,0.151,2.523,2.096,4.86,2.096c2.094,0,3.433-1.274,3.433-2.821c0-1.82-1.58-2.978-4.589-4.225
			c-3.097-1.302-5.528-2.913-5.528-6.438c0-2.369,1.823-5.617,6.651-5.617c3.037,0,5.319,1.579,5.622,1.786
			c0.239,0.158,0.482,0.581,0.184,1.037c-0.246,0.363-0.519,0.783-0.765,1.155c-0.239,0.393-0.636,0.574-1.059,0.303
			c-0.216-0.126-2.337-1.521-4.103-1.521c-2.55,0-3.43,1.611-3.43,2.731c0,1.733,1.336,2.799,3.854,3.829
			c3.524,1.429,6.534,3.098,6.534,6.803c0,3.152-2.826,5.737-6.774,5.737c-3.706,0-6.042-1.942-6.527-2.399
			C207.292,452.899,207.08,452.692,207.383,452.176z"/>
		<path fill="#252C30" d="M224.788,434.71c0-0.395,0.303-0.728,0.728-0.728h1.763c0.393,0,0.728,0.333,0.728,0.728v8.419
			l8.565-8.844c0.122-0.149,0.335-0.301,0.577-0.301h2.279c0.544,0,0.85,0.636,0.427,1.098l-8.779,8.926l9.293,10.234
			c0.246,0.304,0.094,1.006-0.544,1.006h-2.429c-0.308,0-0.486-0.126-0.548-0.214l-8.839-9.966v9.447
			c0,0.395-0.335,0.732-0.728,0.732h-1.763c-0.425,0-0.728-0.338-0.728-0.732V434.71H224.788z"/>
		<path fill="#252C30" d="M244.772,434.561c0-0.303,0.278-0.578,0.576-0.578h2.006c0.308,0,0.574,0.275,0.574,0.578v20.106
			c0,0.301-0.269,0.581-0.574,0.581h-2.006c-0.298,0-0.576-0.28-0.576-0.581V434.561z"/>
		<path fill="#252C30" d="M262.024,434.561c0-0.303,0.278-0.578,0.577-0.578h2.004c0.335,0,0.581,0.275,0.581,0.578v8.47h11.116
			v-8.47c0-0.303,0.246-0.578,0.577-0.578h2.004c0.308,0,0.576,0.275,0.576,0.578v20.106c0,0.301-0.269,0.581-0.576,0.581h-2.004
			c-0.331,0-0.577-0.28-0.577-0.581v-8.779h-11.116v8.779c0,0.301-0.246,0.581-0.581,0.581h-2.004c-0.301,0-0.577-0.28-0.577-0.581
			V434.561z"/>
		<path fill="#252C30" d="M293.826,433.68c6.075,0,10.937,4.885,10.937,10.964c0,6.075-4.865,10.9-10.937,10.9
			c-6.075,0-10.903-4.828-10.903-10.9C282.925,438.564,287.751,433.68,293.826,433.68z M293.826,452.507
			c4.346,0,7.9-3.521,7.9-7.863c0-4.313-3.554-7.93-7.9-7.93c-4.309,0-7.865,3.616-7.865,7.93
			C285.962,448.985,289.517,452.507,293.826,452.507z"/>
		<path fill="#252C30" d="M308.792,434.561c0-0.303,0.24-0.578,0.58-0.578h2.002c0.304,0,0.581,0.275,0.581,0.578v17.859h8.226
			c0.335,0,0.581,0.272,0.581,0.571v1.676c0,0.301-0.245,0.581-0.581,0.581h-10.809c-0.34,0-0.58-0.28-0.58-0.581V434.561
			L308.792,434.561z"/>
		<path fill="#252C30" d="M324.873,434.561c0-0.303,0.271-0.578,0.581-0.578h2c0.308,0,0.581,0.275,0.581,0.578v20.106
			c0,0.301-0.273,0.581-0.581,0.581h-2c-0.31,0-0.581-0.28-0.581-0.581V434.561z"/>
		<path fill="#252C30" d="M334.101,434.561c0-0.303,0.245-0.578,0.553-0.578h6.986c5.858,0,10.654,4.769,10.654,10.6
			c0,5.891-4.796,10.666-10.654,10.666h-6.986c-0.308,0-0.553-0.28-0.553-0.581V434.561z M341.21,452.355
			c4.466,0,7.716-3.276,7.716-7.773c0-4.463-3.25-7.714-7.716-7.714h-4.006v15.487H341.21z"/>
		<path fill="#252C30" d="M353.336,454.451l9.326-20.439c0.089-0.179,0.362-0.335,0.514-0.335h0.308
			c0.151,0,0.425,0.154,0.519,0.335l9.264,20.439c0.18,0.395-0.062,0.795-0.519,0.795h-1.912c-0.367,0-0.586-0.185-0.7-0.46
			l-1.881-4.159h-9.932c-0.612,1.394-1.251,2.764-1.854,4.159c-0.09,0.212-0.335,0.46-0.7,0.46h-1.912
			C353.398,455.246,353.152,454.846,353.336,454.451z M367.095,448.014l-3.729-8.324h-0.155l-3.706,8.324H367.095z"/>
		<path fill="#252C30" d="M378.796,445.004l-7.104-10.14c-0.241-0.396,0-0.884,0.491-0.884h2.242c0.246,0,0.397,0.151,0.492,0.275
			l5.493,7.745l5.498-7.745c0.095-0.122,0.278-0.275,0.487-0.275h2.282c0.481,0,0.723,0.488,0.481,0.884l-7.199,10.11v9.69
			c0,0.301-0.273,0.581-0.576,0.581h-2.007c-0.335,0-0.58-0.28-0.58-0.581L378.796,445.004L378.796,445.004z"/>
		<path fill="#252C30" d="M391.033,452.176c0.277-0.395,0.519-0.852,0.792-1.248c0.277-0.391,0.7-0.51,1.03-0.241
			c0.188,0.151,2.519,2.096,4.862,2.096c2.097,0,3.435-1.274,3.435-2.821c0-1.82-1.584-2.978-4.587-4.225
			c-3.104-1.302-5.535-2.913-5.535-6.438c0-2.369,1.823-5.617,6.655-5.617c3.033,0,5.315,1.579,5.618,1.786
			c0.245,0.158,0.486,0.581,0.184,1.037c-0.245,0.363-0.515,0.783-0.755,1.155c-0.248,0.393-0.644,0.574-1.072,0.303
			c-0.209-0.126-2.335-1.521-4.096-1.521c-2.551,0-3.43,1.611-3.43,2.731c0,1.733,1.331,2.799,3.85,3.829
			c3.524,1.429,6.529,3.098,6.529,6.803c0,3.152-2.819,5.737-6.771,5.737c-3.705,0-6.042-1.942-6.524-2.399
			C390.943,452.899,390.734,452.692,391.033,452.176z"/>
	</g>
	<g>
		<path fill="#252C30" d="M86.727,441.1c-2.22,0-4.024,1.807-4.024,4.001c0,2.218,1.807,4.024,4.024,4.024
			c4.275-0.046,15.274-0.595,28.398-0.959l-6.311-6.312C98.548,441.51,90.294,441.146,86.727,441.1z"/>
		<path fill="#252C30" d="M166.374,442.047c-9.321,0.166-20.232,0.308-29.597,0.308c-5.099,0-10.221-0.068-15.159-0.158l5.716,5.717
			c3.108-0.046,6.265-0.069,9.422-0.069c11.665,0,25.717,0.229,36.133,0.438L166.374,442.047z"/>
		<path fill="#252C30" d="M113.822,442.013l6.036,6.038c0.388,0,0.776-0.023,1.143-0.023l-5.992-5.989
			C114.623,442.013,114.212,442.013,113.822,442.013z"/>
		<path fill="#14645F" d="M166.374,442.047c12.062-0.223,21.486-0.463,21.486-0.463c1.554,0,2.801,1.579,2.801,3.519
			c0,1.952-1.249,3.526-2.801,3.526c0,0-6.194-0.16-14.966-0.34L166.374,442.047z"/>
		<circle fill="#4ABEA5" cx="186.182" cy="445.107" r="1.084"/>
		<g>
			<path fill="#14645F" d="M115.011,442.036l5.992,5.989c2.08-0.046,4.208-0.092,6.334-0.112l-5.717-5.717
				C119.377,442.15,117.162,442.082,115.011,442.036z"/>
		</g>
		<g>
			<path fill="#14645F" d="M108.814,441.853l6.311,6.311c1.554-0.022,3.131-0.068,4.734-0.114l-6.036-6.038
				C112.107,441.944,110.436,441.898,108.814,441.853z"/>
		</g>
	</g>
	<g>
		<path fill="#252C30" d="M525.199,449.123c2.221,0,4.024-1.807,4.024-4.002c0-2.218-1.807-4.021-4.024-4.021
			c-4.274,0.045-15.273,0.594-28.398,0.959l6.313,6.312C513.379,448.714,521.632,449.077,525.199,449.123z"/>
		<path fill="#252C30" d="M445.55,448.175c9.321-0.168,20.233-0.308,29.598-0.308c5.099,0,10.221,0.068,15.159,0.158l-5.717-5.717
			c-3.108,0.049-6.266,0.071-9.422,0.071c-11.665,0-25.72-0.229-36.133-0.438L445.55,448.175z"/>
		<path fill="#252C30" d="M498.103,448.209l-6.035-6.038c-0.389,0-0.776,0.025-1.144,0.025l5.992,5.99
			C497.304,448.209,497.712,448.209,498.103,448.209z"/>
		<path fill="#14645F" d="M445.55,448.175c-12.062,0.223-21.485,0.464-21.485,0.464c-1.555,0-2.801-1.577-2.801-3.52
			c0-1.951,1.249-3.526,2.801-3.526c0,0,6.193,0.161,14.966,0.34L445.55,448.175z"/>
		<path fill="#4ABEA5" d="M425.742,446.2c-0.599,0-1.086-0.489-1.086-1.081c0-0.606,0.487-1.088,1.086-1.088
			c0.6,0,1.081,0.481,1.081,1.088C426.823,445.711,426.342,446.2,425.742,446.2z"/>
		<g>
			<path fill="#14645F" d="M496.916,448.187l-5.992-5.99c-2.08,0.046-4.208,0.092-6.334,0.112l5.717,5.717
				C492.547,448.071,494.765,448.143,496.916,448.187z"/>
		</g>
		<g>
			<path fill="#14645F" d="M503.112,448.37l-6.313-6.312c-1.555,0.023-3.132,0.069-4.734,0.112l6.036,6.038
				C499.817,448.275,501.489,448.324,503.112,448.37z"/>
		</g>
	</g>
</g>
</svg>