<svg version="1.1" id="Layer_1" xmlns="http://www.w3.org/2000/svg" xmlns:xlink="http://www.w3.org/1999/xlink" x="0px" y="0px"
	  viewBox="0 0 255.158 56.061" enable-background="new 0 0 255.158 56.061"
	 xml:space="preserve">
<g id="strapline">
	<g>
		<path fill="#50B848" d="M181.428,39.874c-1.016-0.467-1.948-0.687-2.908-0.687c-2.085,0-3.484,1.125-3.484,2.799
			c0,0.713,0.247,1.316,0.769,1.811c0.493,0.494,0.905,0.741,2.551,1.481c1.619,0.741,2.552,1.262,3.292,1.838
			c1.043,0.823,1.646,2.113,1.646,3.567c0,3.154-2.524,5.377-6.118,5.377c-1.454,0-2.854-0.329-4.637-1.098l0.714-2.03
			c1.481,0.741,2.688,1.098,3.841,1.098c2.085,0,3.512-1.234,3.512-2.99c0-0.769-0.274-1.454-0.823-1.921
			c-0.549-0.493-1.289-0.905-2.771-1.618c-2.086-0.961-2.497-1.207-3.21-1.921c-0.851-0.878-1.317-2.03-1.317-3.319
			c0-3.018,2.359-5.075,5.816-5.075c1.207,0,2.387,0.219,3.786,0.713L181.428,39.874z"/>
		<path fill="#50B848" d="M187.735,42.727v8.917c0,1.756,0.713,2.469,2.387,2.469c0.96,0,1.866-0.329,2.881-1.042V43.057h2.359
			v12.702h-2.359v-0.878c-1.289,0.823-2.387,1.18-3.648,1.18c-2.634,0-3.979-1.316-3.979-3.868v-9.136L187.735,42.727z"/>
		<path fill="#50B848" d="M198.268,43.057l2.359-0.302v1.042c0.411-0.274,0.576-0.356,0.796-0.466
			c0.795-0.412,1.701-0.659,2.523-0.659c1.043,0,2.03,0.356,2.717,0.961c0.191,0.164,0.302,0.302,0.521,0.631
			c1.317-1.043,2.552-1.537,3.896-1.537c1.152,0,2.167,0.412,2.853,1.098c0.741,0.769,0.961,1.481,0.961,3.183v8.752h-2.359v-8.23
			c0-0.521-0.027-0.933-0.083-1.207c-0.164-0.961-1.069-1.646-2.14-1.646c-0.905,0-1.646,0.329-2.579,1.098v9.986H205.4v-8.176
			c0-0.713,0-1.015-0.055-1.234c-0.137-1.016-1.042-1.701-2.25-1.701c-0.822,0-1.481,0.247-2.469,0.987v10.124h-2.359V43.057z"/>
		<path fill="#50B848" d="M217.797,43.057l2.359-0.302v1.042c0.411-0.274,0.576-0.356,0.796-0.466
			c0.795-0.412,1.701-0.659,2.523-0.659c1.043,0,2.03,0.356,2.717,0.961c0.191,0.164,0.302,0.302,0.521,0.631
			c1.317-1.043,2.552-1.537,3.896-1.537c1.152,0,2.167,0.412,2.853,1.098c0.741,0.769,0.961,1.481,0.961,3.183v8.752h-2.359v-8.23
			c0-0.521-0.027-0.933-0.083-1.207c-0.164-0.961-1.069-1.646-2.14-1.646c-0.905,0-1.646,0.329-2.579,1.098v9.986h-2.332v-8.176
			c0-0.713,0-1.015-0.055-1.234c-0.137-1.016-1.042-1.701-2.25-1.701c-0.822,0-1.481,0.247-2.469,0.987v10.124h-2.359V43.057z"/>
		<path fill="#50B848" d="M239.412,50.162c0.22,2.606,1.674,4.006,4.088,4.006c0.878,0,1.729-0.165,2.936-0.632l0.467,1.783
			c-1.372,0.494-2.661,0.714-3.951,0.714c-3.896,0-6.173-2.497-6.173-6.831c0-4.033,2.058-6.476,5.433-6.476
			c3.292,0,5.13,2.305,5.13,6.365c0,0.247,0,0.604-0.027,1.07H239.412z M245.009,48.543c0-2.634-0.96-4.005-2.825-4.005
			c-1.839,0-2.908,1.427-2.964,4.005H245.009z"/>
		<path fill="#50B848" d="M249.616,43.057l2.387-0.083v1.016c0.658-0.549,0.796-0.631,1.29-0.823
			c0.604-0.247,1.097-0.356,1.865-0.356l-0.274,2.305c-0.356-0.056-0.549-0.083-0.823-0.083c-0.796,0-1.454,0.22-2.058,0.659v10.068
			h-2.387V43.057z"/>
	</g>
</g>
<path fill-rule="evenodd" clip-rule="evenodd" fill="#ED1C24" d="M5.053,5.153c9.146-5.925,29.101-6.689,49.396-1.938
	c-0.324-0.055-0.665-0.071-0.996-0.121C39.186,0.578,25.305,1.431,18.543,6.073c-6.31,4.339-4.955,11.007,3.343,16.914H4.816
	C-1.642,16.154-1.647,9.486,5.053,5.153L5.053,5.153z M54.796,3.31l-0.551-0.056c-8.133-0.88-16.012,0.258-19.993,3.237
	c-5.527,4.135-1.839,10.633,9.201,14.564c2.317,0.83,4.746,1.47,7.197,1.932H32.667c-10.76-5.517-13.738-12.378-7.748-16.876
	c5.204-3.903,16.441-4.685,28.555-3.056c0.325,0.045,0.65,0.104,0.975,0.159L54.796,3.31L54.796,3.31z"/>
<g id="logo">
	<path fill-rule="evenodd" clip-rule="evenodd" d="M240.114,18.774c-1.305,0-2.962-0.229-3.623-2.092l0,0
		c-0.182-0.522-0.291-1.166-0.291-1.965V0h-8.402v16.954c0,1.733,0.324,3.435,1.057,4.674c1.481,2.521,4.422,2.62,6.344,2.62h18.609
		v-5.474H240.114z"/>
	<path fill-rule="evenodd" clip-rule="evenodd" d="M114.911,13.44c1.245-0.193,2.869-0.507,3.783-2.153
		c0.638-1.135,0.985-2.647,0.985-4.25c0-1.663-0.363-3.052-1.04-4.252C117.119,0.1,113.942,0,111.949,0H91.07v18.891H71.893
		c-0.97,0-2.572-0.027-3.276-1.167c-0.21-0.335-0.33-0.677-0.396-1.041c0,0-0.083-0.875-0.083-1.382V5.483h20.561V0.005H67.212
		c-2.461,0-6.106,0.061-7.973,2.787c-1.123,1.64-1.212,3.755-1.212,5.93c0,0,0,7.604,0.012,7.961c0.044,1.773,0.265,3.437,1.2,4.808
		c1.866,2.715,5.512,2.786,7.973,2.786l32.271-0.028v-8.759h3.475c1.828,0,3.386,0.291,4.707,1.193l0,0
		c1.757,1.201,3.094,3.476,4.097,7.565h9.471c-0.787-2.852-2.159-6.101-3.211-7.565C116.976,15.219,116.085,14.183,114.911,13.44z
		 M108.458,10.021h-8.975V5.347h8.975c0.953,0,2.285,0.154,2.285,2.35C110.743,9.861,109.411,10.021,108.458,10.021z"/>
	<path fill-rule="evenodd" clip-rule="evenodd" d="M170.391,11.921c-2.01-2.406-5.83-2.406-8.149-2.406h-4.922
		c-0.914,0-2.703,0.286-2.703-2.099c0-2.389,1.789-2.164,2.703-2.164h13.198V0H155.64c-2.262,0-6.073-0.028-8.044,2.312
		c-0.947,1.135-1.459,2.94-1.459,4.911c0,1.978,0.512,3.845,1.459,4.979c1.971,2.345,5.782,2.246,8.044,2.246h4.823
		c0.965,0,2.847-0.214,2.892,2.235c0,0,0,0.062,0,0.09c0,2.543-1.922,2.322-2.892,2.322h-20.273L147.018,0h-8.991l-4.797,13.468
		L128.478,0h-9.729l4.978,12.834c0.947,2.462,1.542,3.457,2.577,3.849h0.005c0.551,0.209,1.228,0.248,2.153,0.248h3.761
		l-2.754,7.317h32.772c2.302,0,6.156,0.033,8.149-2.339c0.969-1.173,1.481-2.941,1.481-4.951c0-0.093,0-0.275,0-0.275
		C171.823,14.778,171.315,13.033,170.391,11.921z"/>
	<polygon fill-rule="evenodd" clip-rule="evenodd" points="171.657,5.439 180.264,5.439 180.264,24.281 188.748,24.281
		188.748,5.439 197.354,5.439 197.354,0 171.657,0 	"/>
	<path fill-rule="evenodd" clip-rule="evenodd" d="M218.239,0h-19.724v24.248h8.413v-5.474h7.803c0.732,0,1.933,0.035,2.483,1.042
		c0.353,0.622,0.363,1.382,0.363,2.23v2.201h8.397V8.776c0-2.174-0.078-4.377-1.024-6.023C223.376,0.033,220.305,0,218.239,0z
		 M217.578,13.44h-7.862c-0.744,0-1.834-0.039-2.406-1.046c-0.348-0.628-0.381-1.41-0.381-2.235V5.468h7.495
		c0.837,0,2.097,0.037,2.736,1.166c0.385,0.695,0.418,1.575,0.418,2.489V13.44z"/>
</g>
</svg>
