<svg xmlns="http://www.w3.org/2000/svg" viewBox="0 0 658.883 98.331">
	<style>
		#letter-p,
		#letter-e,
		#letter-n,
		#letter-r {
			opacity: 0;
			display: none;
		}
		@media all and (min-width: 300px) {
			#letter-p,
			#letter-e,
			#letter-n,
			#letter-r {
				opacity: 1;
				display: inline-block;
			}
			#letter-o {
			}
		}
	</style>
	<g id="text">
		<g id="mf-openr" fill="#057F73">
			<path id="letter-r" d="M658.883 43.352c0 10.26-6.12 19.17-14.94 23.13l9.54 14.4h-54v-63h34.02c14.04 0 25.38 11.43 25.38 25.47zm-56.16-22.23v56.52h44.82l-8.28-12.51 3.42-1.53c3.78-1.8 7.02-4.59 9.36-8.1 2.43-3.6 3.69-7.83 3.69-12.15 0-5.94-2.34-11.52-6.57-15.75-4.14-4.23-9.72-6.48-15.66-6.48h-30.78z"/>
			<path id="letter-n" d="M590.484 80.88h-63v-63l31.5 17.28V17.88h31.5v63zm-28.26-59.758v19.44l-31.5-17.28v54.36h56.52V21.12h-25.02z"/>
			<path id="letter-e" d="M518.485 80.88h-60.75v-63h60.66l.09 63zm-3.24-24.297h-11.34v-3.15h11.34v-8.1h-11.34v-3.15h11.34v-21.06h-54.27v56.52h54.27v-21.06z"/>
			<path id="letter-p" d="M450.355 43.352c0 10.26-6.03 19.08-14.85 23.13v14.4h-45.36v-63h34.83c14.04 0 25.38 11.43 25.38 25.47zm-56.97-22.23v56.52h38.97v-13.23l1.8-.9c3.87-1.71 7.11-4.5 9.36-8.01 2.43-3.6 3.69-7.83 3.69-12.15 0-5.94-2.34-11.52-6.57-15.75-4.14-4.23-9.72-6.48-15.66-6.48h-31.59z"/>
			<path id="letter-o" d="M384.116 49.382c0 18.27-14.85 33.12-33.12 33.12-18.27 0-33.12-14.85-33.12-33.12s14.85-33.12 33.12-33.12c18.27 0 33.12 14.85 33.12 33.12zm-33.12-29.7c-16.38 0-29.7 13.32-29.7 29.7s13.32 29.7 29.7 29.7 29.7-13.32 29.7-29.7-13.32-29.7-29.7-29.7z"/>
			<path id="letter-f" d="M266.576 66.032h-11.43v14.85h-49.32v-63h60.66l.09 48.15zm-3.24-15.03h-11.34v-3.24h11.34V21.12h-54.27v56.52h42.93V62.88h11.34V51z"/>
			<path id="letter-m" d="M196.827 80.88h-63v-63l31.5 17.28 31.5-17.28v63zm-31.5-42.028l-28.26-15.57v54.36h56.52V23.28l-28.26 15.57z"/>
		</g>
	</g>
	<g id="stack">
		<path id="front" fill="#04A883" d="M94.743 98.33V35.96h-62.37v62.37h62.37zm-59.69-2.677V38.638h57.012v57.015H35.052z"/>
		<path id="middle" fill="#057F73" d="M16.318 80.217h11.63V77.54H19V20.525h57.01v11.628h2.68V17.848H16.32z"/>
		<path id="back" fill="#015959" d="M0 62.37h11.63v-2.68H2.68V2.678h57.01v11.628h2.678V0H0z"/>
	</g>
</svg>
