<svg version="1.1" xmlns="http://www.w3.org/2000/svg" xmlns:xlink="http://www.w3.org/1999/xlink" x="0px" y="0px"
	  viewBox="0 0 1967.285 449.372" enable-background="new 0 0 1967.285 449.372"
	 xml:space="preserve">
	 <style>
		<!-- @media all and (max-width: 768px) {
			#strapline{
				opacity: 0;
				display:none;
			}
		} -->
	</style>
<g>
	<g id="logo">
		<path fill="#DA2128" d="M125.771,189.925c0,3.198-0.591,4.714-2.292,5.979c-1.877,1.474-6.107,2.231-12.53,2.231
			c-6.617,0-10.869-0.758-12.723-2.231c-1.726-1.266-2.317-2.781-2.317-5.979V95.274l-1.854,0.146l-16.173,1.203
			c-11.541,0.796-12.215-8.375-12.215-15.271c0-12.205,4.213-15.534,11.284-15.534h66.728c5.769,0,9.729,1.559,11.437,9.803
			c2.105,10.205,1.029,15.335-8.512,15.989l-19.439,1.408l-1.393,0.104V189.925L125.771,189.925z"/>
		<path fill="#DA2128" d="M244.515,196.641c-1.728,1.495-5.851,2.253-12.003,2.253c-6.447,0-10.342-0.758-12.068-2.273
			c-1.75-1.304-2.334-2.886-2.334-6.062v-44.485c0-8.677-3.855-11.583-10.599-11.583c-8.232,0-14.654,7.161-14.654,15.08v40.988
			c0,3.198-0.613,4.759-2.364,6.083c-1.748,1.495-5.873,2.253-12.021,2.253c-6.405,0-10.341-0.758-12.073-2.273
			c-1.743-1.304-2.334-2.886-2.334-6.062V78.76c0-3.916,0.38-6.253,2.316-8.181c1.685-1.707,6.17-2.887,9.645-3.664
			c2.908-0.579,7.646-1.37,10.045-1.37c1.772,0,3.895,0.401,5.037,1.297c0.842,0.746,1.328,1.495,1.539,2.6
			c0.104,0.518,0.146,1.105,0.188,1.853c0.022,0.718,0.022,1.561,0.022,2.59v46.491c4.318-5.621,12.402-10.359,24.621-10.359
			c17.482,0,29.419,10.571,29.419,31.001v49.54C246.896,193.756,246.264,195.316,244.515,196.641L244.515,196.641z"/>
		<path fill="#DA2128" d="M309.747,200.055c-26.625,0-45.602-18.177-45.602-45.011c0-26.666,18.977-45.027,45.602-45.027
			c26.433,0,45.41,18.361,45.41,45.027C355.157,181.878,336.18,200.055,309.747,200.055L309.747,200.055z M309.747,133.543
			c-10.491,0-16.429,8.19-16.429,21.5c0,13.103,5.938,21.504,16.429,21.504c10.484,0,16.237-8.193,16.237-21.504
			C325.984,141.904,320.231,133.543,309.747,133.543L309.747,133.543z"/>
		<path fill="#DA2128" d="M500.498,196.641c-1.766,1.495-5.875,2.253-12.045,2.253c-6.407,0-10.325-0.758-12.052-2.273
			c-1.724-1.304-2.333-2.886-2.333-6.062v-46.043c0-7.141-3.101-10.025-9.25-10.025c-6.104,0-12.511,6.024-12.511,12.932v43.137
			c0,3.198-0.584,4.759-2.357,6.083c-1.749,1.495-5.857,2.253-12.028,2.253c-6.4,0-10.317-0.758-12.066-2.273
			c-1.728-1.304-2.319-2.886-2.319-6.062v-46.043c0-7.161-2.906-10.025-9.014-10.025c-6.17,0-12.74,6.024-12.74,12.932v43.137
			c0,3.198-0.612,4.759-2.357,6.083c-1.749,1.495-5.84,2.253-12.028,2.253c-6.403,0-10.317-0.758-12.048-2.273
			c-1.728-1.304-2.357-2.886-2.357-6.062v-66.515c0-3.942,0.403-6.278,2.315-8.214c1.683-1.683,5.774-2.865,9.247-3.644
			c2.927-0.611,7.453-1.39,9.876-1.39c1.77,0,3.897,0.399,5.013,1.303c0.841,0.737,1.353,1.499,1.561,2.594
			c0.104,0.504,0.146,1.137,0.167,1.853c0.045,0.716,0.045,1.558,0.045,2.611v2.193c4.123-6.007,12.765-11.333,24.007-11.333
			c9.855,0,18.24,3.768,23.124,11.92c5.482-6.316,15.122-11.92,26.246-11.92c15.292,0,28.262,8.802,28.262,28.433v52.108
			C502.855,193.756,502.222,195.316,500.498,196.641L500.498,196.641z"/>
		<path fill="#DA2128" d="M559.257,200.055c-16.846,0-30.413-4.7-35.597-7.898c-4.422-2.781-5.134-4.679-5.134-7.269
			c0-2.503,1.241-5.517,3.031-8.298c1.495-2.273,3.414-4.929,6.281-4.929c1.979,0,4.21,0.736,6.375,1.581
			c2.169,0.842,4.363,1.874,6.299,2.569c4.613,1.516,11.965,2.889,18.744,2.889c7.943,0,10.763-2.889,10.763-5.92
			c0-3.751-2.673-4.888-12.424-6.678l-9.16-1.745c-14.281-2.739-27.949-9.271-27.949-25.908c0-18.786,16.408-28.433,38.375-28.433
			c11.395,0,22.766,2.357,28.686,4.717c4.818,1.811,6,4.129,6,6.74c0,1.349-0.208,2.506-0.549,3.706
			c-0.292,1.137-0.754,2.315-1.241,3.709c-1.196,3.136-3.431,6.4-6.761,6.4c-1.895,0-3.751-0.4-5.708-0.925
			c-1.978-0.549-4.147-1.224-6.886-1.814c-3.873-0.779-7.919-1.554-14.701-1.554c-6.949,0-9.035,2.27-9.035,5.305
			c0,3.16,4.404,4.717,11.646,5.92l9.775,1.745c15.25,2.739,28.915,8.51,28.915,26.666C599,190.429,582.381,200.055,559.257,200.055
			L559.257,200.055z"/>
		<path fill="#DA2128" d="M656.352,200.055c-26.625,0-45.577-18.177-45.577-45.011c0-26.666,18.953-45.027,45.577-45.027
			c26.45,0,45.452,18.361,45.452,45.027C701.804,181.878,682.802,200.055,656.352,200.055L656.352,200.055z M656.352,133.543
			c-10.492,0-16.429,8.19-16.429,21.5c0,13.103,5.938,21.504,16.429,21.504c10.508,0,16.262-8.193,16.262-21.504
			C672.614,141.904,666.86,133.543,656.352,133.543L656.352,133.543z"/>
		<path fill="#DA2128" d="M800.094,196.641c-1.766,1.495-5.854,2.253-12.028,2.253c-6.421,0-10.317-0.758-12.083-2.273
			c-1.71-1.304-2.318-2.886-2.318-6.062v-44.485c0-8.677-3.838-11.583-10.575-11.583c-8.256,0-14.701,7.161-14.701,15.08v40.988
			c0,3.198-0.591,4.759-2.315,6.083c-1.766,1.495-5.875,2.253-12.045,2.253c-6.407,0-10.324-0.758-12.069-2.273
			c-1.731-1.304-2.34-2.886-2.34-6.062v-66.515c0-3.942,0.382-6.278,2.319-8.214c1.682-1.683,5.774-2.865,9.264-3.644
			c2.906-0.611,7.411-1.39,9.841-1.39c1.79,0,3.911,0.399,5.03,1.303c0.866,0.737,1.328,1.499,1.561,2.594
			c0.083,0.504,0.146,1.137,0.164,1.853c0.024,0.716,0.024,1.558,0.024,2.611v2.193c4.081-6.024,12.382-11.333,25.213-11.333
			c17.479,0,29.399,10.571,29.399,31.001v49.54C802.434,193.756,801.843,195.316,800.094,196.641L800.094,196.641z"/>
	</g>
	<g id="strapline">
		<path fill="#FFFFFF" d="M109.933,384.35c-22.036,0-32.956-6.24-39.196-10.14c-4.291-2.535-5.07-4.096-5.07-5.656
			c0-1.17,2.145-5.85,4.29-8.58c1.755-1.949,2.34-2.535,3.9-2.535c0.585,0,1.56,0.391,2.925,1.365c1.56,0.975,3.12,1.95,4.68,2.926
			c5.07,2.924,14.236,7.02,26.911,7.02c17.746,0,31.006-7.02,31.006-21.646c0-12.48-7.411-17.551-27.886-23.206l-8.385-2.34
			c-20.866-5.851-35.687-14.626-35.687-36.076c0-23.207,16.381-37.246,43.682-37.246c10.726,0,17.551,1.364,22.621,2.729
			c5.07,1.364,8.19,2.925,9.555,3.511c5.265,2.34,6.045,3.899,6.045,4.875c0,1.365-1.17,5.459-2.73,8.189
			c-1.17,2.34-2.145,3.315-3.51,3.315c-0.78,0-1.95-0.194-3.315-0.78c-1.365-0.585-7.995-3.9-13.456-5.07
			c-3.51-0.779-7.8-1.56-15.015-1.56c-17.746,0-26.716,8.97-26.716,20.671c0,11.311,9.945,16.381,26.716,21.061l10.335,2.926
			c20.866,5.85,35.296,14.82,35.296,36.66C156.929,370.894,139.574,384.35,109.933,384.35z"/>
		<path fill="#FFFFFF" d="M270.809,381.229c-0.975,0.585-2.925,1.17-9.165,1.17c-7.215,0-9.166-0.975-10.53-2.535l-55.772-62.012
			v58.893c0,2.535-0.195,3.314-0.975,4.094c-0.78,0.781-3.315,1.561-7.995,1.561c-4.485,0-7.02-0.779-7.8-1.561
			c-0.78-0.779-0.975-1.559-0.975-4.094V255.84c0-2.535,0.195-3.315,0.975-4.095c0.78-0.78,3.315-1.561,7.8-1.561
			c4.68,0,7.215,0.78,7.995,1.561c0.78,0.779,0.975,1.56,0.975,4.095v53.237l52.652-56.162c1.755-1.756,2.925-2.73,10.14-2.73
			c6.24,0,7.02,0.585,7.996,1.17c0.779,0.391,1.17,1.365,1.17,2.146c0,0.976-0.391,1.755-1.755,3.315l-52.458,55.771l57.137,62.987
			c1.365,1.56,1.755,2.535,1.755,3.511C271.979,379.864,271.589,380.839,270.809,381.229z"/>
		<path fill="#FFFFFF" d="M304.149,380.839c-0.78,0.781-3.315,1.561-7.995,1.561c-4.29,0-6.825-0.779-7.605-1.561
			c-0.78-0.779-0.975-1.559-0.975-4.094V255.84c0-2.535,0.194-3.315,0.975-4.095c0.78-0.78,3.315-1.561,7.605-1.561
			c4.68,0,7.215,0.78,7.995,1.561c0.78,0.779,0.975,1.56,0.975,4.095v120.905C305.124,379.28,304.93,380.06,304.149,380.839z"/>
		<path fill="#FFFFFF" d="M484.526,314.343c-1.17,1.949-2.535,2.34-5.46,2.34h-10.141v19.891c0,30.615-18.331,46.996-47.191,46.996
			c-25.546,0-44.852-12.48-44.852-39.196c0-14.82,7.215-28.081,21.841-34.906c-8.581-3.899-16.576-13.65-16.576-27.69
			c0-21.256,17.161-33.541,34.906-33.541c11.115,0,15.016,1.364,20.476,3.119c6.436,2.146,7.021,4.096,7.021,5.461
			c0,0.975-0.39,3.119-1.17,5.07c-1.17,2.924-2.535,5.265-4.875,5.265c-2.535,0-4.096-1.56-7.021-2.535
			c-2.73-0.976-5.851-2.341-14.04-2.341c-9.556,0-18.526,7.216-18.526,21.062c0,12.286,9.36,18.721,25.546,18.721h57.138
			c2.145,0,3.12,0,3.705,0.585s0.78,1.17,0.78,3.314C486.087,309.272,485.307,312.978,484.526,314.343z M451.57,316.683h-29.251
			c-19.501,0-26.716,12.87-26.716,27.69c0,16.381,9.165,23.985,27.301,23.985c19.11,0,28.666-10.529,28.666-32.76V316.683z"/>
		<path fill="#FFFFFF" d="M586.117,384.35c-22.036,0-32.956-6.24-39.196-10.14c-4.29-2.535-5.07-4.096-5.07-5.656
			c0-1.17,2.145-5.85,4.29-8.58c1.755-1.949,2.34-2.535,3.9-2.535c0.585,0,1.56,0.391,2.925,1.365
			c1.561,0.975,3.12,1.95,4.681,2.926c5.069,2.924,14.235,7.02,26.91,7.02c17.746,0,31.007-7.02,31.007-21.646
			c0-12.48-7.41-17.551-27.887-23.206l-8.385-2.34c-20.866-5.851-35.687-14.626-35.687-36.076c0-23.207,16.381-37.246,43.682-37.246
			c10.726,0,17.551,1.364,22.621,2.729c5.07,1.364,8.19,2.925,9.555,3.511c5.266,2.34,6.046,3.899,6.046,4.875
			c0,1.365-1.17,5.459-2.73,8.189c-1.17,2.34-2.145,3.315-3.51,3.315c-0.78,0-1.95-0.194-3.315-0.78
			c-1.365-0.585-7.995-3.9-13.455-5.07c-3.511-0.779-7.801-1.56-15.016-1.56c-17.746,0-26.716,8.97-26.716,20.671
			c0,11.311,9.945,16.381,26.716,21.061l10.335,2.926c20.866,5.85,35.297,14.82,35.297,36.66
			C633.114,370.894,615.758,384.35,586.117,384.35z"/>
		<path fill="#FFFFFF" d="M743.678,380.839c-0.779,0.781-2.534,1.561-6.825,1.561c-4.484,0-6.435-0.779-7.215-1.365
			c-0.585-0.584-0.975-0.975-1.365-1.754l-57.527-91.654v89.119c0,2.535-0.194,3.314-1.17,4.094c-0.78,0.781-2.34,1.561-7.215,1.561
			c-4.29,0-6.631-0.779-7.41-1.561c-0.976-0.779-1.17-1.559-1.17-4.094v-111.74l-4.681-7.995c-0.975-1.364-1.17-2.534-1.17-2.925
			c0-1.17,0.39-1.95,0.975-2.34c0.78-0.78,3.315-1.561,9.751-1.561c4.485,0,7.021,0.975,7.8,1.561c0.391,0.39,0.78,0.584,1.17,0.975
			c0.391,0.391,0.78,0.975,1.365,2.145l58.697,93.799V255.84c0-2.535,0.195-3.315,0.976-4.095c0.779-0.78,2.729-1.561,7.02-1.561
			c4.876,0,7.216,0.78,7.995,1.561c0.78,0.779,0.976,1.56,0.976,4.095v120.905C744.653,379.28,744.458,380.06,743.678,380.839z"/>
		<path fill="#FFFFFF" d="M824.211,384.35c-33.347,0-56.552-24.571-56.552-67.862s23.205-68.252,56.552-68.252
			c33.151,0,56.357,24.961,56.357,68.252S857.362,384.35,824.211,384.35z M824.211,263.835c-23.791,0-37.441,19.501-37.441,52.652
			c0,33.15,13.65,52.262,37.441,52.262c23.596,0,37.246-19.111,37.246-52.262C861.457,283.336,847.807,263.835,824.211,263.835z"/>
		<path fill="#FFFFFF" d="M1003.392,379.28c-0.585,2.34-2.535,3.705-9.165,3.705c-6.825,0-8.386-1.365-8.971-3.705l-21.646-77.809
			l-20.671,77.809c-0.585,2.34-2.535,3.705-9.165,3.705c-6.825,0-8.775-1.365-9.36-3.705l-35.102-123.44
			c-0.391-1.364-0.391-1.755-0.391-2.34c0-0.78,0.391-1.365,0.78-1.755c0.78-0.78,3.511-1.561,8.386-1.561
			c4.29,0,7.02,0.78,7.8,1.561c0.78,0.779,1.365,1.755,1.95,4.095l26.326,98.868l21.646-80.537l-5.07-18.331
			c-0.39-1.364-0.39-1.755-0.39-2.34c0-0.78,0.39-1.365,0.78-1.755c0.78-0.78,3.51-1.561,8.385-1.561c4.29,0,7.021,0.78,7.801,1.561
			c0.78,0.779,1.365,1.755,1.95,4.095l24.961,98.868l26.131-98.868c0.585-2.34,1.17-3.315,1.95-4.095
			c0.779-0.78,3.12-1.561,7.41-1.561c4.875,0,7.8,0.78,8.58,1.561c0.78,0.779,0.78,1.949,0.195,4.095L1003.392,379.28z"/>
		<path fill="#FFFFFF" d="M1101.474,381.62h-38.807c-5.07,0-6.631-0.781-7.41-1.561c-0.78-0.779-1.17-1.561-1.17-4.096V256.62
			c0-2.535,0.39-3.315,1.17-4.096c0.779-0.779,2.34-1.56,7.41-1.56h35.491c25.936,0,40.366,11.31,40.366,30.616
			c0,17.551-8.97,25.351-16.771,29.057c9.556,2.729,23.596,11.699,23.596,33.541C1145.35,366.409,1127.994,381.62,1101.474,381.62z
			 M1095.428,265.785h-23.985v38.417h21.646c24.961,0,27.301-10.141,27.301-20.672
			C1120.389,273.001,1114.148,265.785,1095.428,265.785z M1095.038,319.022h-23.596V366.8h26.911
			c19.891,0,28.275-11.311,28.275-23.791C1126.629,330.917,1121.754,319.022,1095.038,319.022z"/>
		<path fill="#FFFFFF" d="M1218.472,384.35c-33.347,0-56.552-24.571-56.552-67.862s23.205-68.252,56.552-68.252
			c33.151,0,56.357,24.961,56.357,68.252S1251.623,384.35,1218.472,384.35z M1218.472,263.835
			c-23.791,0-37.441,19.501-37.441,52.652c0,33.15,13.65,52.262,37.441,52.262c23.596,0,37.246-19.111,37.246-52.262
			C1255.718,283.336,1242.067,263.835,1218.472,263.835z"/>
		<path fill="#FFFFFF" d="M1387.535,381.034c-0.585,0.586-2.926,1.365-7.801,1.365c-4.29,0-6.825-0.779-7.605-1.561
			c-0.779-0.779-1.17-1.754-1.949-4.094l-10.336-31.201h-49.727l-10.336,31.201c-0.779,2.34-1.17,3.314-1.95,4.094
			c-0.779,0.781-3.12,1.561-7.41,1.561c-4.875,0-6.825-0.779-7.604-1.561c-0.586-0.584-0.586-1.17-0.586-1.754
			c0-0.78,0.586-2.73,0.976-4.096l42.316-121.685c0.78-2.34,2.146-3.705,9.75-3.705c7.801,0,9.166,1.365,9.946,3.705l42.901,123.44
			c0.39,1.17,0.39,1.754,0.39,2.34C1388.51,379.864,1388.12,380.45,1387.535,381.034z M1334.883,270.855l-19.891,60.257h39.977
			L1334.883,270.855z"/>
		<path fill="#FFFFFF" d="M1495.953,381.229c-0.975,0.585-2.535,1.17-8.775,1.17c-7.215,0-8.385-0.975-9.36-2.535l-36.661-52.847
			c-7.8,0-13.65-0.39-19.501-0.78v50.508c0,2.535-0.194,3.314-0.975,4.094c-0.78,0.781-3.315,1.561-7.995,1.561
			c-4.485,0-6.825-0.779-7.605-1.561c-0.78-0.779-0.975-1.559-0.975-4.094V256.62c0-2.535,0.39-3.315,1.17-4.096
			c0.779-0.779,2.34-1.56,7.41-1.56h29.641c31.786,0,46.217,11.896,46.217,36.271c0,16.967-7.8,31.592-28.471,37.441l36.271,50.897
			c1.17,1.56,1.365,2.535,1.17,3.511C1497.514,379.864,1496.929,380.839,1495.953,381.229z M1442.132,265.785h-20.477v45.827
			c5.461,0.195,11.116,0.39,18.721,0.39c22.427,0,29.837-9.945,29.837-24.571C1470.213,273.585,1463.388,265.785,1442.132,265.785z"
			/>
		<path fill="#FFFFFF" d="M1558.156,381.62h-35.491c-5.07,0-6.631-0.781-7.41-1.561c-0.78-0.779-1.17-1.561-1.17-4.096V256.62
			c0-2.535,0.39-3.315,1.17-4.096c0.779-0.779,2.34-1.56,7.41-1.56h35.881c35.102,0,57.917,23.206,57.917,64.938
			S1593.647,381.62,1558.156,381.62z M1557.376,266.175h-25.546v100.234h26.716c25.546,0,38.807-18.721,38.807-50.507
			S1584.092,266.175,1557.376,266.175z"/>
		<path fill="#FFFFFF" d="M1656.043,380.839c-0.78,0.781-3.315,1.561-7.995,1.561c-4.29,0-6.825-0.779-7.605-1.561
			c-0.78-0.779-0.975-1.559-0.975-4.094V255.84c0-2.535,0.194-3.315,0.975-4.095c0.78-0.78,3.315-1.561,7.605-1.561
			c4.68,0,7.215,0.78,7.995,1.561c0.78,0.779,0.975,1.56,0.975,4.095v120.905C1657.018,379.28,1656.823,380.06,1656.043,380.839z"/>
		<path fill="#FFFFFF" d="M1776.164,380.839c-0.78,0.781-2.535,1.561-6.826,1.561c-4.484,0-6.435-0.779-7.215-1.365
			c-0.585-0.584-0.975-0.975-1.365-1.754l-57.527-91.654v89.119c0,2.535-0.194,3.314-1.17,4.094
			c-0.779,0.781-2.34,1.561-7.215,1.561c-4.29,0-6.631-0.779-7.41-1.561c-0.976-0.779-1.17-1.559-1.17-4.094v-111.74l-4.681-7.995
			c-0.975-1.364-1.17-2.534-1.17-2.925c0-1.17,0.39-1.95,0.975-2.34c0.78-0.78,3.315-1.561,9.751-1.561
			c4.485,0,7.02,0.975,7.8,1.561c0.391,0.39,0.78,0.584,1.17,0.975c0.391,0.391,0.78,0.975,1.365,2.145l58.697,93.799V255.84
			c0-2.535,0.195-3.315,0.976-4.095c0.779-0.78,2.729-1.561,7.02-1.561c4.875,0,7.216,0.78,7.996,1.561
			c0.779,0.779,0.975,1.56,0.975,4.095v120.905C1777.139,379.28,1776.943,380.06,1776.164,380.839z"/>
		<path fill="#FFFFFF" d="M1895.113,378.109c-3.899,1.755-14.82,6.24-36.271,6.24c-34.711,0-58.696-24.571-58.696-67.862
			s24.961-68.252,59.087-68.252c21.061,0,30.031,5.069,32.371,6.045c5.266,2.34,6.045,3.9,6.045,4.875c0,1.365-0.39,3.51-2.145,6.63
			c-2.34,4.29-4.096,6.046-5.461,6.046c-0.779,0-1.755-0.391-3.119-1.17c-1.365-0.781-4.876-2.535-8.386-3.705
			c-3.9-1.365-9.556-2.535-19.501-2.535c-25.936,0-39.781,18.915-39.781,52.066c0,33.15,17.355,52.066,40.951,52.066
			c12.871,0,19.891-1.949,24.182-3.51v-35.491h-24.961c-2.146,0-2.73-0.39-3.12-0.78c-0.585-0.585-0.78-1.755-0.78-3.12
			c0-3.315,0.585-7.604,1.56-9.36c0.976-1.561,2.535-1.949,5.461-1.949h30.421c5.07,0,6.63,0.779,7.41,1.56s1.17,1.56,1.17,4.095
			v50.312C1901.549,374.015,1900.184,375.77,1895.113,378.109z"/>
	</g>
</g>
<g id="TUI_Dot_Guide" display="none">
	<path id="TUIDOT" display="inline" fill="#C0E2F3" d="M32.812,0c18.085,0,32.772,14.828,32.772,33.114
		c0,18.3-14.687,33.136-32.772,33.136C14.687,66.25,0,51.414,0,33.114C0,14.828,14.687,0,32.812,0L32.812,0z"/>
	<path id="TUIDOT_9_" display="inline" fill="#C0E2F3" d="M32.812,383.789c18.085,0,32.772,14.678,32.772,32.781
		c0,18.115-14.687,32.802-32.772,32.802C14.687,449.372,0,434.686,0,416.57C0,398.467,14.687,383.789,32.812,383.789L32.812,383.789
		z"/>
	<path id="TUIDOT_8_" display="inline" fill="#C0E2F3" d="M835.354,383.789c18.086,0,32.772,14.678,32.772,32.781
		c0,18.115-14.687,32.802-32.772,32.802c-18.125,0-32.812-14.687-32.812-32.802C802.542,398.467,817.228,383.789,835.354,383.789
		L835.354,383.789z"/>
	<path display="inline" fill="#C0E2F3" d="M65.584,216.279c0-5.971-1.605-11.563-4.395-16.385H4.396
		C1.605,204.716,0,210.309,0,216.279c0,18.115,14.687,32.801,32.812,32.801C50.898,249.08,65.584,234.395,65.584,216.279z"/>
	<path display="inline" fill="#C0E2F3" d="M835.126,216.279c0-5.971-1.605-11.563-4.395-16.385h-56.793
		c-2.791,4.821-4.396,10.414-4.396,16.385c0,18.115,14.687,32.801,32.812,32.801C820.439,249.08,835.126,234.395,835.126,216.279z"
		/>
	<g display="inline">
		<path id="TUIDOT_5_" fill="#C0E2F3" d="M1934.513,0c18.086,0,32.772,14.828,32.772,33.114c0,18.3-14.687,33.136-32.772,33.136
			c-18.126,0-32.812-14.836-32.812-33.136C1901.7,14.828,1916.387,0,1934.513,0L1934.513,0z"/>
		<path id="TUIDOT_3_" fill="#C0E2F3" d="M1934.513,383.789c18.086,0,32.772,14.678,32.772,32.781
			c0,18.115-14.687,32.802-32.772,32.802c-18.126,0-32.812-14.687-32.812-32.802C1901.7,398.467,1916.387,383.789,1934.513,383.789
			L1934.513,383.789z"/>
		<path fill="#C0E2F3" d="M1967.285,216.279c0-5.971-1.605-11.563-4.396-16.385h-56.793c-2.791,4.821-4.396,10.414-4.396,16.385
			c0,18.115,14.688,32.801,32.812,32.801C1952.599,249.08,1967.285,234.395,1967.285,216.279z"/>
	</g>
</g>
<g id="Guidelines" display="none">
</g>
</svg>
