<?xml version="1.0" encoding="utf-8"?>
<!-- Generator: Adobe Illustrator 16.0.4, SVG Export Plug-In . SVG Version: 6.00 Build 0)  -->
<!DOCTYPE svg PUBLIC "-//W3C//DTD SVG 1.1//EN" "http://www.w3.org/Graphics/SVG/1.1/DTD/svg11.dtd">
<svg version="1.1" id="Layer_1" xmlns="http://www.w3.org/2000/svg" xmlns:xlink="http://www.w3.org/1999/xlink" x="0px" y="0px"
	  viewBox="0 0 1833 468.625" enable-background="new 0 0 1833 468.625" xml:space="preserve">
<g>
	<path fill="#EF0000" d="M125.771,190.925c0,3.198-0.591,4.714-2.292,5.98c-1.877,1.473-6.108,2.23-12.53,2.23
		c-6.617,0-10.869-0.758-12.723-2.23c-1.726-1.267-2.317-2.782-2.317-5.98V96.274l-1.855,0.146l-16.173,1.203
		c-11.541,0.796-12.215-8.375-12.215-15.271c0-12.205,4.212-15.534,11.283-15.534h66.728c5.769,0,9.729,1.559,11.437,9.803
		c2.105,10.205,1.029,15.336-8.512,15.989l-19.438,1.408l-1.393,0.104V190.925z"/>
	<path fill="#EF0000" d="M244.515,197.641c-1.728,1.495-5.851,2.253-12.003,2.253c-6.448,0-10.343-0.758-12.069-2.272
		c-1.75-1.305-2.334-2.887-2.334-6.063v-44.485c0-8.677-3.855-11.583-10.599-11.583c-8.232,0-14.654,7.161-14.654,15.08v40.988
		c0,3.198-0.613,4.759-2.364,6.083c-1.748,1.495-5.873,2.253-12.021,2.253c-6.405,0-10.341-0.758-12.073-2.272
		c-1.743-1.305-2.334-2.887-2.334-6.063V79.76c0-3.916,0.381-6.253,2.317-8.181c1.684-1.706,6.17-2.887,9.645-3.664
		c2.908-0.579,7.646-1.37,10.045-1.37c1.772,0,3.895,0.402,5.036,1.297c0.842,0.746,1.328,1.495,1.539,2.6
		c0.104,0.518,0.146,1.106,0.187,1.853c0.023,0.718,0.023,1.561,0.023,2.59v46.491c4.318-5.621,12.402-10.359,24.621-10.359
		c17.481,0,29.419,10.571,29.419,31.001v49.54C246.896,194.756,246.264,196.316,244.515,197.641"/>
	<path fill="#EF0000" d="M309.747,201.055c-26.624,0-45.602-18.177-45.602-45.011c0-26.667,18.978-45.027,45.602-45.027
		c26.433,0,45.41,18.361,45.41,45.027C355.157,182.878,336.18,201.055,309.747,201.055 M309.747,134.544
		c-10.491,0-16.429,8.189-16.429,21.5c0,13.103,5.938,21.504,16.429,21.504c10.484,0,16.237-8.193,16.237-21.504
		C325.983,142.904,320.23,134.544,309.747,134.544"/>
	<path fill="#EF0000" d="M500.498,197.641c-1.766,1.495-5.875,2.253-12.045,2.253c-6.407,0-10.325-0.758-12.052-2.272
		c-1.724-1.305-2.333-2.887-2.333-6.063v-46.043c0-7.141-3.1-10.025-9.25-10.025c-6.104,0-12.511,6.024-12.511,12.932v43.137
		c0,3.198-0.584,4.759-2.357,6.083c-1.748,1.495-5.857,2.253-12.028,2.253c-6.399,0-10.317-0.758-12.066-2.272
		c-1.727-1.305-2.318-2.887-2.318-6.063v-46.043c0-7.161-2.907-10.025-9.015-10.025c-6.17,0-12.74,6.024-12.74,12.932v43.137
		c0,3.198-0.612,4.759-2.357,6.083c-1.748,1.495-5.84,2.253-12.028,2.253c-6.402,0-10.317-0.758-12.048-2.272
		c-1.727-1.305-2.357-2.887-2.357-6.063v-66.515c0-3.941,0.403-6.277,2.315-8.213c1.683-1.684,5.775-2.865,9.247-3.644
		c2.927-0.611,7.453-1.39,9.876-1.39c1.77,0,3.897,0.399,5.013,1.303c0.841,0.737,1.352,1.499,1.561,2.594
		c0.104,0.504,0.146,1.137,0.166,1.852c0.046,0.716,0.046,1.558,0.046,2.611v2.194c4.122-6.007,12.764-11.333,24.007-11.333
		c9.855,0,18.239,3.768,23.124,11.92c5.482-6.316,15.121-11.92,26.245-11.92c15.292,0,28.262,8.802,28.262,28.433v52.108
		C502.855,194.756,502.222,196.316,500.498,197.641"/>
	<path fill="#EF0000" d="M559.257,201.055c-16.846,0-30.413-4.7-35.597-7.898c-4.421-2.781-5.134-4.679-5.134-7.269
		c0-2.503,1.241-5.517,3.031-8.298c1.495-2.273,3.414-4.929,6.282-4.929c1.978,0,4.21,0.736,6.375,1.582
		c2.17,0.841,4.363,1.872,6.299,2.568c4.613,1.516,11.966,2.888,18.744,2.888c7.943,0,10.763-2.888,10.763-5.919
		c0-3.751-2.674-4.888-12.425-6.678l-9.159-1.745c-14.281-2.739-27.95-9.271-27.95-25.908c0-18.787,16.409-28.433,38.375-28.433
		c11.395,0,22.766,2.357,28.686,4.717c4.818,1.811,6,4.13,6,6.74c0,1.349-0.209,2.507-0.55,3.706
		c-0.291,1.137-0.754,2.315-1.24,3.709c-1.196,3.136-3.432,6.4-6.762,6.4c-1.894,0-3.751-0.4-5.708-0.925
		c-1.978-0.55-4.147-1.224-6.886-1.814c-3.873-0.779-7.919-1.554-14.701-1.554c-6.949,0-9.035,2.27-9.035,5.305
		c0,3.16,4.405,4.717,11.646,5.92l9.775,1.745c15.25,2.739,28.915,8.51,28.915,26.666
		C599.001,191.429,582.381,201.055,559.257,201.055"/>
	<path fill="#EF0000" d="M656.352,201.055c-26.625,0-45.577-18.177-45.577-45.011c0-26.667,18.952-45.027,45.577-45.027
		c26.45,0,45.452,18.361,45.452,45.027C701.804,182.878,682.802,201.055,656.352,201.055 M656.352,134.544
		c-10.492,0-16.429,8.189-16.429,21.5c0,13.103,5.938,21.504,16.429,21.504c10.508,0,16.262-8.193,16.262-21.504
		C672.614,142.904,666.86,134.544,656.352,134.544"/>
	<path fill="#EF0000" d="M800.094,197.641c-1.766,1.495-5.854,2.253-12.028,2.253c-6.421,0-10.317-0.758-12.083-2.272
		c-1.711-1.305-2.319-2.887-2.319-6.063v-44.485c0-8.677-3.838-11.583-10.574-11.583c-8.257,0-14.702,7.161-14.702,15.08v40.988
		c0,3.198-0.59,4.759-2.315,6.083c-1.766,1.495-5.875,2.253-12.045,2.253c-6.407,0-10.324-0.758-12.069-2.272
		c-1.732-1.305-2.34-2.887-2.34-6.063v-66.515c0-3.941,0.382-6.277,2.319-8.213c1.682-1.684,5.774-2.865,9.264-3.644
		c2.906-0.611,7.411-1.39,9.841-1.39c1.79,0,3.911,0.399,5.03,1.303c0.866,0.737,1.328,1.499,1.561,2.594
		c0.084,0.504,0.146,1.137,0.164,1.852c0.024,0.716,0.024,1.558,0.024,2.611v2.194c4.081-6.025,12.382-11.333,25.213-11.333
		c17.478,0,29.399,10.571,29.399,31.001v49.54C802.434,194.756,801.843,196.316,800.094,197.641"/>
</g>
<g>
	<defs>
		<rect id="SVGID_1_" width="1833" height="267.355"/>
	</defs>
	<clipPath id="SVGID_2_">
		<use xlink:href="#SVGID_1_"  overflow="visible"/>
	</clipPath>
</g>
<path fill="#FFFFFF" d="M148.203,396.06c-0.975,1.561-2.535,1.951-5.46,1.951H80.342c-5.072,0-6.632-0.781-7.412-1.561
	c-0.779-0.779-1.17-1.561-1.17-4.096V272.23c0-2.534,0.195-3.315,0.976-4.095c0.78-0.78,3.315-1.561,7.801-1.561
	c4.681,0,7.215,0.78,7.995,1.561c0.779,0.779,0.975,1.561,0.975,4.095V382.8h56.357c2.145,0,2.73,0.391,3.119,0.779
	c0.586,0.586,0.781,1.756,0.781,3.121C149.764,390.015,149.178,394.306,148.203,396.06"/>
<path fill="#FFFFFF" d="M256.623,397.425c-0.585,0.586-2.925,1.365-7.8,1.365c-4.29,0-6.826-0.779-7.605-1.561
	c-0.78-0.779-1.17-1.755-1.95-4.094l-10.336-31.201h-49.727l-10.335,31.201c-0.78,2.339-1.17,3.314-1.95,4.094
	c-0.779,0.781-3.119,1.561-7.41,1.561c-4.875,0-6.826-0.779-7.605-1.561c-0.585-0.584-0.585-1.17-0.585-1.755
	c0-0.779,0.585-2.729,0.975-4.095l42.317-121.685c0.779-2.341,2.145-3.705,9.75-3.705c7.8,0,9.165,1.364,9.945,3.705l42.901,123.44
	c0.392,1.17,0.392,1.754,0.392,2.339C257.6,396.255,257.208,396.841,256.623,397.425 M203.971,287.246l-19.891,60.257h39.977
	L203.971,287.246z"/>
<path fill="#FFFFFF" d="M366.406,397.62c-0.975,0.585-2.925,1.17-9.165,1.17c-7.216,0-9.165-0.975-10.53-2.535l-55.772-62.012
	v58.893c0,2.535-0.195,3.314-0.974,4.094c-0.781,0.781-3.316,1.561-7.996,1.561c-4.485,0-7.021-0.779-7.801-1.561
	c-0.781-0.779-0.975-1.559-0.975-4.094V272.229c0-2.534,0.193-3.314,0.975-4.094c0.78-0.781,3.315-1.561,7.801-1.561
	c4.68,0,7.215,0.779,7.996,1.561c0.778,0.779,0.974,1.56,0.974,4.094v53.238l52.653-56.162c1.754-1.756,2.924-2.73,10.139-2.73
	c6.24,0,7.021,0.585,7.996,1.171c0.779,0.39,1.17,1.364,1.17,2.146c0,0.975-0.391,1.754-1.756,3.313l-52.457,55.772l57.138,62.987
	c1.364,1.56,1.755,2.535,1.755,3.51C367.576,396.255,367.186,397.229,366.406,397.62"/>
<path fill="#FFFFFF" d="M462.346,396.06c-0.977,1.561-2.535,1.951-5.461,1.951h-65.132c-5.07,0-6.632-0.781-7.41-1.561
	c-0.78-0.779-1.17-1.561-1.17-4.096V273.011c0-2.535,0.39-3.314,1.17-4.096c0.778-0.779,2.34-1.56,7.41-1.56h67.278
	c2.145,0,2.729,0.39,3.119,0.78c0.585,0.585,0.78,1.755,0.78,3.119c0,3.316-0.585,7.605-1.562,9.361
	c-0.974,1.56-2.535,1.949-5.459,1.949h-54.992v36.857h49.337c2.146,0,2.73,0.39,3.12,0.779c0.584,0.586,0.781,1.756,0.781,3.121
	c0,3.314-0.586,7.604-1.562,9.359c-0.976,1.56-2.535,1.95-5.46,1.95h-46.217V382.8h59.087c2.146,0,2.73,0.391,3.12,0.779
	c0.586,0.586,0.781,1.756,0.781,3.121C463.906,390.015,463.32,394.306,462.346,396.06"/>
<path fill="#FFFFFF" d="M515.577,400.74c-22.036,0-32.956-6.24-39.196-10.14c-4.29-2.535-5.07-4.096-5.07-5.656
	c0-1.17,2.145-5.851,4.289-8.58c1.756-1.949,2.34-2.535,3.901-2.535c0.585,0,1.56,0.39,2.925,1.365
	c1.561,0.975,3.12,1.95,4.68,2.926c5.07,2.924,14.236,7.02,26.91,7.02c17.747,0,31.008-7.02,31.008-21.646
	c0-12.48-7.41-17.551-27.887-23.206l-8.385-2.34c-20.865-5.852-35.688-14.626-35.688-36.077c0-23.206,16.382-37.246,43.683-37.246
	c10.726,0,17.551,1.365,22.621,2.729c5.07,1.365,8.19,2.926,9.556,3.512c5.265,2.339,6.045,3.898,6.045,4.875
	c0,1.365-1.17,5.459-2.73,8.189c-1.17,2.34-2.145,3.315-3.51,3.315c-0.78,0-1.95-0.194-3.315-0.78
	c-1.365-0.584-7.995-3.899-13.455-5.07c-3.511-0.779-7.801-1.559-15.016-1.559c-17.746,0-26.716,8.969-26.716,20.67
	c0,11.311,9.945,16.381,26.716,21.061l10.335,2.926c20.865,5.85,35.297,14.82,35.297,36.66
	C562.574,387.284,545.218,400.74,515.577,400.74"/>
<path fill="#FFFFFF" d="M733.394,330.733c-1.17,1.949-2.535,2.34-5.46,2.34h-10.141v19.891c0,30.615-18.332,46.996-47.191,46.996
	c-25.546,0-44.853-12.48-44.853-39.196c0-14.82,7.216-28.081,21.842-34.905c-8.581-3.9-16.576-13.651-16.576-27.691
	c0-21.256,17.161-33.541,34.905-33.541c11.116,0,15.017,1.363,20.477,3.119c6.436,2.146,7.02,4.096,7.02,5.461
	c0,0.975-0.389,3.119-1.169,5.07c-1.17,2.924-2.536,5.265-4.875,5.265c-2.536,0-4.096-1.56-7.021-2.535
	c-2.73-0.976-5.852-2.34-14.04-2.34c-9.556,0-18.526,7.215-18.526,21.061c0,12.285,9.36,18.722,25.546,18.722h57.138
	c2.145,0,3.12,0,3.705,0.584s0.78,1.17,0.78,3.314C734.954,325.663,734.174,329.368,733.394,330.733 M700.438,333.073h-29.251
	c-19.501,0-26.716,12.87-26.716,27.69c0,16.381,9.165,23.985,27.301,23.985c19.11,0,28.666-10.529,28.666-32.759V333.073z"/>
<path fill="#FFFFFF" d="M912.012,397.229c-0.779,0.781-2.925,1.561-7.8,1.561c-4.29,0-6.825-0.779-7.605-1.561
	c-0.78-0.779-0.975-1.559-0.975-4.094v-94.774l-29.058,49.532c-0.389,0.779-0.974,1.365-1.559,1.949l-0.585,0.586
	c-1.365,1.365-3.9,1.561-7.995,1.561c-3.9,0-6.436-0.391-7.801-1.561c-0.78-0.78-1.365-1.17-2.145-2.535l-28.861-46.607v91.85
	c0,2.535-0.195,3.314-0.976,4.094c-0.779,0.781-3.314,1.561-7.995,1.561c-4.291,0-6.436-0.779-7.215-1.561
	c-0.976-0.779-1.17-1.559-1.17-4.094V281.2l-4.096-6.824c-1.755-2.73-1.755-2.926-1.755-4.681c0-1.95,3.51-3.12,9.944-3.12
	c6.631,0,9.946,0.78,11.701,3.51l41.146,63.768l38.222-63.768c1.755-2.924,3.705-3.51,8.775-3.51c4.875,0,7.021,0.78,7.8,1.561
	c0.78,0.779,0.976,1.56,0.976,4.095v120.905C912.987,395.671,912.792,396.45,912.012,397.229"/>
<path fill="#FFFFFF" d="M992.544,400.74c-33.347,0-56.552-24.571-56.552-67.862c0-43.292,23.205-68.253,56.552-68.253
	c33.151,0,56.356,24.961,56.356,68.253C1048.9,376.169,1025.695,400.74,992.544,400.74 M992.544,280.226
	c-23.791,0-37.441,19.502-37.441,52.652s13.65,52.262,37.441,52.262c23.596,0,37.246-19.111,37.246-52.262
	S1016.14,280.226,992.544,280.226"/>
<path fill="#FFFFFF" d="M1119.487,400.74c-35.296,0-48.557-18.331-48.557-43.682v-84.829c0-2.534,0.195-3.314,0.976-4.094
	c0.779-0.781,3.314-1.561,8.189-1.561c4.291,0,6.826,0.779,7.605,1.561c0.78,0.779,0.975,1.56,0.975,4.094v86.975
	c0,13.846,9.556,26.131,30.812,26.131s30.812-12.285,30.812-26.131v-86.975c0-2.534,0.195-3.314,0.975-4.094
	c0.779-0.781,3.315-1.561,7.996-1.561c4.484,0,7.02,0.779,7.8,1.561c0.78,0.779,0.976,1.56,0.976,4.094v84.829
	C1168.045,382.409,1154.784,400.74,1119.487,400.74"/>
<path fill="#FFFFFF" d="M1286.211,397.229c-0.779,0.781-2.534,1.561-6.825,1.561c-4.485,0-6.435-0.779-7.215-1.365
	c-0.585-0.584-0.976-0.975-1.365-1.754l-57.528-91.654v89.119c0,2.535-0.193,3.314-1.17,4.094c-0.779,0.781-2.339,1.561-7.214,1.561
	c-4.29,0-6.631-0.779-7.411-1.561c-0.975-0.779-1.169-1.559-1.169-4.094V281.396l-4.681-7.996c-0.975-1.364-1.17-2.534-1.17-2.925
	c0-1.17,0.39-1.95,0.975-2.34c0.78-0.78,3.315-1.561,9.751-1.561c4.485,0,7.021,0.975,7.8,1.561c0.391,0.39,0.78,0.585,1.17,0.975
	c0.391,0.391,0.78,0.975,1.364,2.145l58.698,93.799V272.23c0-2.535,0.195-3.315,0.975-4.095c0.78-0.78,2.73-1.561,7.021-1.561
	c4.876,0,7.216,0.78,7.995,1.561c0.779,0.779,0.976,1.56,0.976,4.095v120.905C1287.187,395.671,1286.99,396.45,1286.211,397.229"/>
<path fill="#FFFFFF" d="M1403.016,280.616c-0.977,1.56-2.535,1.949-5.46,1.949h-34.517v110.57c0,2.535-0.195,3.313-1.17,4.094
	c-0.78,0.781-3.121,1.561-7.996,1.561c-4.291,0-6.824-0.779-7.604-1.561c-0.976-0.78-1.17-1.559-1.17-4.094v-110.57h-38.026
	c-2.146,0-2.73-0.39-3.12-0.779c-0.585-0.586-0.78-1.756-0.78-3.121c0-3.314,0.585-7.604,1.56-9.36
	c0.976-1.56,2.535-1.949,5.461-1.949h90.483c2.145,0,2.729,0.39,3.119,0.78c0.586,0.584,0.78,1.755,0.78,3.12
	C1404.575,274.571,1403.99,278.86,1403.016,280.616"/>
<path fill="#FFFFFF" d="M1495.6,397.425c-0.586,0.586-2.926,1.365-7.801,1.365c-4.29,0-6.826-0.779-7.605-1.561
	c-0.779-0.779-1.17-1.755-1.949-4.094l-10.336-31.201h-49.727l-10.336,31.201c-0.779,2.339-1.17,3.314-1.95,4.094
	c-0.779,0.781-3.12,1.561-7.41,1.561c-4.875,0-6.825-0.779-7.604-1.561c-0.586-0.584-0.586-1.17-0.586-1.755
	c0-0.779,0.586-2.729,0.976-4.095l42.316-121.685c0.78-2.341,2.146-3.705,9.75-3.705c7.8,0,9.166,1.364,9.946,3.705l42.9,123.44
	c0.391,1.17,0.391,1.754,0.391,2.339C1496.574,396.255,1496.184,396.841,1495.6,397.425 M1442.947,287.246l-19.891,60.257h39.977
	L1442.947,287.246z"/>
<path fill="#FFFFFF" d="M1528.745,397.229c-0.78,0.781-3.315,1.561-7.995,1.561c-4.29,0-6.825-0.779-7.605-1.561
	c-0.78-0.779-0.975-1.559-0.975-4.094V272.23c0-2.535,0.194-3.315,0.975-4.095c0.78-0.78,3.315-1.561,7.605-1.561
	c4.68,0,7.215,0.78,7.995,1.561c0.78,0.779,0.975,1.56,0.975,4.095v120.905C1529.72,395.671,1529.525,396.45,1528.745,397.229"/>
<path fill="#FFFFFF" d="M1648.865,397.229c-0.779,0.781-2.534,1.561-6.825,1.561c-4.485,0-6.435-0.779-7.215-1.365
	c-0.585-0.584-0.976-0.975-1.365-1.754l-57.528-91.654v89.119c0,2.535-0.193,3.314-1.17,4.094c-0.779,0.781-2.339,1.561-7.214,1.561
	c-4.29,0-6.631-0.779-7.411-1.561c-0.975-0.779-1.169-1.559-1.169-4.094V281.396l-4.681-7.996c-0.975-1.364-1.17-2.534-1.17-2.925
	c0-1.17,0.39-1.95,0.975-2.34c0.78-0.78,3.315-1.561,9.751-1.561c4.485,0,7.021,0.975,7.8,1.561c0.391,0.39,0.78,0.585,1.17,0.975
	c0.391,0.391,0.78,0.975,1.364,2.145l58.698,93.799V272.23c0-2.535,0.195-3.315,0.975-4.095c0.78-0.78,2.73-1.561,7.021-1.561
	c4.876,0,7.216,0.78,7.995,1.561c0.779,0.779,0.976,1.56,0.976,4.095v120.905C1649.841,395.671,1649.645,396.45,1648.865,397.229"/>
<path fill="#FFFFFF" d="M1713.798,400.74c-22.036,0-32.956-6.24-39.196-10.14c-4.29-2.535-5.07-4.096-5.07-5.656
	c0-1.17,2.145-5.851,4.289-8.58c1.756-1.949,2.34-2.535,3.901-2.535c0.585,0,1.56,0.39,2.925,1.365
	c1.561,0.975,3.12,1.95,4.68,2.926c5.07,2.924,14.236,7.02,26.91,7.02c17.747,0,31.008-7.02,31.008-21.646
	c0-12.48-7.41-17.551-27.887-23.206l-8.385-2.34c-20.866-5.852-35.688-14.626-35.688-36.077c0-23.206,16.382-37.246,43.683-37.246
	c10.726,0,17.551,1.365,22.621,2.729c5.069,1.365,8.19,2.926,9.556,3.512c5.264,2.339,6.045,3.898,6.045,4.875
	c0,1.365-1.17,5.459-2.73,8.189c-1.17,2.34-2.145,3.315-3.51,3.315c-0.78,0-1.95-0.194-3.315-0.78
	c-1.365-0.584-7.995-3.899-13.455-5.07c-3.511-0.779-7.801-1.559-15.016-1.559c-17.746,0-26.716,8.969-26.716,20.67
	c0,11.311,9.945,16.381,26.716,21.061l10.335,2.926c20.865,5.85,35.297,14.82,35.297,36.66
	C1760.795,387.284,1743.438,400.74,1713.798,400.74"/>
</svg>
